<?xml version="1.0" encoding="UTF-8"?>
<svg id="Calque_2" data-name="Calque 2" xmlns="http://www.w3.org/2000/svg" xmlns:xlink="http://www.w3.org/1999/xlink" viewBox="0 0 122.97 93.61">
  <defs>
    <style>
      .cls-1 {
        fill: #d37d3d;
      }

      .cls-2 {
        fill: #6f938d;
        filter: url(#drop-shadow-1);
      }
    </style>
    <filter id="drop-shadow-1" filterUnits="userSpaceOnUse">
      <feOffset dx="2.78" dy="2.78"/>
      <feGaussianBlur result="blur" stdDeviation="1.99"/>
      <feFlood flood-color="#100c00" flood-opacity=".75"/>
      <feComposite in2="blur" operator="in"/>
      <feComposite in="SourceGraphic"/>
    </filter>
  </defs>
  <g id="Layer_1" data-name="Layer 1">
    <g>
      <path class="cls-1" d="m0,.31c.83-.17,2.14-.31,3.48-.31,1.9,0,3.13.33,4.05,1.07.77.57,1.23,1.44,1.23,2.6,0,1.42-.94,2.67-2.49,3.24v.04c1.4.35,3.04,1.51,3.04,3.7,0,1.27-.5,2.23-1.25,2.95-1.03.94-2.69,1.38-5.1,1.38-1.31,0-2.32-.09-2.95-.17V.31Zm1.9,6.04h1.73c2.01,0,3.19-1.05,3.19-2.47,0-1.73-1.31-2.41-3.24-2.41-.88,0-1.38.07-1.69.13v4.75Zm0,7.07c.37.07.92.09,1.6.09,1.97,0,3.79-.72,3.79-2.87,0-2.01-1.73-2.84-3.81-2.84h-1.58v5.62Z"/>
      <path class="cls-1" d="m11.8,7.57c0-1.25-.02-2.32-.09-3.3h1.69l.07,2.08h.09c.48-1.42,1.64-2.32,2.93-2.32.22,0,.37.02.55.07v1.82c-.2-.04-.39-.07-.66-.07-1.36,0-2.32,1.03-2.58,2.47-.04.26-.09.57-.09.9v5.65h-1.9v-7.29Z"/>
      <path class="cls-1" d="m27.82,11.97c0,1.09.02,2.06.09,2.89h-1.71l-.11-1.73h-.04c-.5.85-1.62,1.97-3.5,1.97-1.66,0-3.65-.92-3.65-4.64v-6.19h1.93v5.86c0,2.01.61,3.37,2.36,3.37,1.29,0,2.19-.9,2.54-1.75.11-.28.18-.63.18-.98v-6.5h1.93v7.7Z"/>
      <path class="cls-1" d="m31.01,7.13c0-1.09-.02-1.99-.09-2.87h1.71l.11,1.75h.04c.53-1.01,1.75-1.99,3.5-1.99,1.47,0,3.74.88,3.74,4.51v6.32h-1.93v-6.1c0-1.71-.63-3.13-2.45-3.13-1.27,0-2.25.9-2.58,1.97-.09.24-.13.57-.13.9v6.37h-1.93v-7.72Z"/>
      <path class="cls-1" d="m52.75,9.47c0,3.92-2.71,5.62-5.27,5.62-2.87,0-5.08-2.1-5.08-5.45,0-3.54,2.32-5.62,5.25-5.62s5.1,2.21,5.1,5.45Zm-8.4.11c0,2.32,1.33,4.07,3.22,4.07s3.22-1.73,3.22-4.11c0-1.79-.9-4.07-3.17-4.07s-3.26,2.1-3.26,4.11Z"/>
      <path class="cls-1" d="m59.89.28c.92-.15,2.12-.28,3.65-.28,1.88,0,3.26.44,4.14,1.23.81.7,1.29,1.77,1.29,3.08s-.39,2.38-1.14,3.15c-1.01,1.07-2.65,1.62-4.51,1.62-.57,0-1.09-.02-1.53-.13v5.91h-1.9V.28Zm1.9,7.11c.42.11.94.15,1.58.15,2.3,0,3.7-1.12,3.7-3.15s-1.38-2.89-3.48-2.89c-.83,0-1.47.07-1.79.15v5.73Z"/>
      <path class="cls-1" d="m71.99,9.91c.04,2.6,1.71,3.68,3.63,3.68,1.38,0,2.21-.24,2.93-.55l.33,1.38c-.68.31-1.84.66-3.52.66-3.26,0-5.21-2.14-5.21-5.34s1.88-5.71,4.97-5.71c3.46,0,4.38,3.04,4.38,4.99,0,.39-.04.7-.07.9h-7.44Zm5.65-1.38c.02-1.23-.5-3.13-2.67-3.13-1.95,0-2.8,1.79-2.95,3.13h5.62Z"/>
      <path class="cls-1" d="m81.62,12.89c.57.37,1.58.77,2.54.77,1.4,0,2.06-.7,2.06-1.58,0-.92-.55-1.42-1.97-1.95-1.9-.68-2.8-1.73-2.8-3,0-1.71,1.38-3.11,3.65-3.11,1.07,0,2.01.31,2.6.66l-.48,1.4c-.42-.26-1.18-.61-2.17-.61-1.14,0-1.77.66-1.77,1.44,0,.88.63,1.27,2.01,1.79,1.84.7,2.78,1.62,2.78,3.19,0,1.86-1.44,3.17-3.96,3.17-1.16,0-2.23-.28-2.98-.72l.48-1.47Z"/>
      <path class="cls-1" d="m91.62,9.91c.04,2.6,1.71,3.68,3.63,3.68,1.38,0,2.21-.24,2.93-.55l.33,1.38c-.68.31-1.84.66-3.52.66-3.26,0-5.21-2.14-5.21-5.34s1.88-5.71,4.97-5.71c3.46,0,4.38,3.04,4.38,4.99,0,.39-.04.7-.07.9h-7.44Zm5.65-1.38c.02-1.23-.5-3.13-2.67-3.13-1.95,0-2.8,1.79-2.95,3.13h5.62Z"/>
      <path class="cls-1" d="m101.52,7.13c0-1.09-.02-1.99-.09-2.87h1.71l.11,1.75h.04c.53-1.01,1.75-1.99,3.5-1.99,1.47,0,3.74.88,3.74,4.51v6.32h-1.93v-6.1c0-1.71-.63-3.13-2.45-3.13-1.27,0-2.25.9-2.58,1.97-.09.24-.13.57-.13.9v6.37h-1.93v-7.72Z"/>
      <path class="cls-1" d="m115.9,1.23v3.04h2.76v1.47h-2.76v5.71c0,1.31.37,2.06,1.44,2.06.5,0,.88-.07,1.12-.13l.09,1.44c-.37.15-.96.26-1.71.26-.9,0-1.62-.28-2.08-.81-.55-.57-.74-1.51-.74-2.76v-5.78h-1.64v-1.47h1.64V1.73l1.88-.5Z"/>
      <path class="cls-1" d="m122.97,1.29c.02.66-.46,1.18-1.23,1.18-.68,0-1.16-.53-1.16-1.18s.5-1.2,1.2-1.2,1.18.53,1.18,1.2Zm-2.14,13.57V4.27h1.93v10.59h-1.93Z"/>
    </g>
    <path class="cls-2" d="m64.86,69.18l46.98-47.88-52.3,40.31c-1.21-.4-2.49-.49-3.72-.28L10.85,33.87l38.62,33.71c-.32,1.76-.03,3.59.84,5.16l-5.49,7.8,10.89-2.38,9.31,6.55-1.81-10.94c.08-.1.16-.21.24-.32.92-1.3,1.37-2.79,1.41-4.27Z"/>
  </g>
</svg>